<svg width="16" height="16" viewBox="0 0 16 16" fill="none" xmlns="http://www.w3.org/2000/svg">
<path d="M6.0005 2H9.5515L5.8655 13.5905C5.83133 13.707 5.76087 13.8095 5.66437 13.8832C5.56787 13.9568 5.45038 13.9978 5.329 14H2.565C2.41062 13.9953 2.26442 13.9295 2.15849 13.8171C2.05256 13.7047 1.99555 13.5549 2 13.4005C2.00027 13.3352 2.01038 13.2703 2.03 13.208L5.465 2.4085C5.49929 2.29235 5.56968 2.19015 5.66596 2.1167C5.76224 2.04325 5.87942 2.00237 6.0005 2Z" fill="#D4D4D4"/>
<path d="M11.16 10H5.53C5.45896 10.002 5.39159 10.032 5.34267 10.0836C5.29375 10.1351 5.26725 10.204 5.269 10.275C5.26861 10.3128 5.27575 10.3503 5.29 10.3853C5.30425 10.4204 5.32533 10.4522 5.352 10.479L8.97 13.837C9.07257 13.9403 9.21192 13.9988 9.3575 13.9995H12.5455L11.16 10Z" fill="#C0C0C0"/>
<path d="M10.5355 2.408C10.5011 2.29203 10.4308 2.18999 10.3346 2.11664C10.2384 2.0433 10.1214 2.00245 10.0005 2H6.043C6.16404 2.0022 6.28123 2.04288 6.3776 2.11615C6.47397 2.18942 6.54451 2.29146 6.579 2.4075L10.013 13.207C10.0622 13.355 10.0529 13.5163 9.98686 13.6577C9.92083 13.7991 9.80314 13.9098 9.658 13.967C9.59989 13.9877 9.5387 13.9986 9.477 13.999H13.4345C13.5889 13.9944 13.7351 13.9288 13.8412 13.8165C13.9472 13.7042 14.0043 13.5544 14 13.4C13.9997 13.3347 13.9896 13.2698 13.97 13.2075L10.536 2.4085L10.5355 2.408Z" fill="white"/>
</svg>
