<svg width="24" height="25" viewBox="0 0 24 25" fill="none" xmlns="http://www.w3.org/2000/svg">
<path d="M20 7.87476H4C2.89543 7.87476 2 8.77019 2 9.87476V19.8748C2 20.9793 2.89543 21.8748 4 21.8748H20C21.1046 21.8748 22 20.9793 22 19.8748V9.87476C22 8.77019 21.1046 7.87476 20 7.87476Z" stroke="white" stroke-width="2" stroke-linecap="round" stroke-linejoin="round"/>
<path d="M16 21.8748V5.87476C16 5.34432 15.7893 4.83561 15.4142 4.46054C15.0391 4.08547 14.5304 3.87476 14 3.87476H10C9.46957 3.87476 8.96086 4.08547 8.58579 4.46054C8.21071 4.83561 8 5.34432 8 5.87476V21.8748" stroke="white" stroke-width="2" stroke-linecap="round" stroke-linejoin="round"/>
</svg>
