<svg width="33" height="32" viewBox="0 0 33 32" fill="none" xmlns="http://www.w3.org/2000/svg">
<path d="M16.4999 0C7.67762 0 0.5 7.17757 0.5 16C0.5 24.8224 7.67762 32 16.4999 32C25.3224 32 32.5 24.8224 32.5 16C32.5 7.17757 25.3221 0 16.4999 0ZM16.4999 30.4219C8.54767 30.4219 2.07808 23.9521 2.07808 16C2.07808 8.04787 8.54767 1.57806 16.4999 1.57806C24.4521 1.57806 30.9219 8.04787 30.9219 16C30.9219 23.9521 24.4521 30.4219 16.4999 30.4219Z" fill="#484E53"/>
<path d="M21.502 8.29346H11.4891C10.0123 8.29346 8.81055 9.49489 8.81055 10.972V21.0308C8.81055 22.5076 10.012 23.7093 11.4891 23.7093H21.5017C22.9785 23.7093 24.1802 22.5079 24.1802 21.0308V10.9717C24.1802 9.49489 22.9788 8.29346 21.502 8.29346ZM18.8116 15.9728C18.8116 17.25 17.7727 18.2889 16.4955 18.2889C15.2183 18.2889 14.1794 17.25 14.1794 15.9728C14.1794 15.3393 14.4356 14.7648 14.8491 14.3464H18.1417C18.5712 14.7787 18.812 15.3635 18.8116 15.9728ZM19.4831 10.4365H21.8292V12.8533H19.4831V10.4365ZM21.502 22.131H11.4891C11.1973 22.1306 10.9176 22.0146 10.7113 21.8083C10.505 21.602 10.389 21.3223 10.3886 21.0305V14.3464H12.9619C12.725 14.8559 12.6019 15.4109 12.6014 15.9728C12.6014 18.1203 14.3483 19.867 16.4955 19.867C18.6428 19.867 20.3897 18.1201 20.3897 15.9728C20.3897 15.3919 20.2582 14.8422 20.0291 14.3464H22.6022V21.0305C22.6018 21.3222 22.4858 21.6019 22.2796 21.8082C22.0733 22.0145 21.7937 22.1306 21.502 22.131Z" fill="#A9A9A9"/>
</svg>
