<svg width="33" height="32" viewBox="0 0 33 32" fill="none" xmlns="http://www.w3.org/2000/svg">
<path d="M16.4997 0C7.67757 0 0.5 7.17757 0.5 16C0.5 24.8224 7.67757 32 16.4997 32C25.3222 32 32.5 24.8224 32.5 16C32.5 7.17757 25.3219 0 16.4997 0ZM16.4997 30.4219C8.5476 30.4219 2.07806 23.9521 2.07806 16C2.07806 8.04787 8.5476 1.57806 16.4997 1.57806C24.4519 1.57806 30.9219 8.04787 30.9219 16C30.9219 23.9521 24.4519 30.4219 16.4997 30.4219Z" fill="#484E53"/>
<path d="M16.4326 7.05762C11.5017 7.05762 7.49023 11.0691 7.49023 15.9997C7.49023 20.9306 11.5017 24.9421 16.4326 24.9421C21.3635 24.9421 25.375 20.9306 25.375 15.9997C25.375 11.0691 21.3635 7.05762 16.4326 7.05762ZM22.2701 11.518C23.223 12.7537 23.7563 14.2614 23.7922 15.8214C21.9258 15.5316 20.2697 15.5734 18.8176 15.8314C18.5825 15.2808 18.3322 14.7369 18.0669 14.2002C19.5651 13.5645 21.0274 12.6989 22.2701 11.518ZM21.1784 10.3752C20.0585 11.4373 18.7142 12.2166 17.3271 12.7884C16.2643 10.8692 15.2527 9.47022 14.7625 8.82873C15.3099 8.70069 15.8702 8.63591 16.4323 8.63568C18.2397 8.63568 19.8957 9.29111 21.1784 10.3752ZM13.4745 9.2577L13.2428 9.44865C13.2673 9.47837 14.4766 10.9694 15.8085 13.3331C13.0624 14.1821 10.4112 14.332 9.25609 14.3522C9.78106 12.0667 11.371 10.1846 13.4745 9.2577ZM9.0683 15.9997C9.0683 15.9779 9.06961 15.9563 9.06988 15.9345C10.2384 15.9327 13.3438 15.8151 16.5683 14.7604C16.8083 15.2391 17.0361 15.7238 17.2514 16.2141C13.7233 17.3069 11.6482 19.6235 10.8123 20.7507C9.72556 19.4675 9.0683 17.8092 9.0683 15.9997ZM11.9583 21.8436C12.5435 20.9804 14.3906 18.6588 17.8421 17.6601C18.4404 19.2537 18.927 20.9953 19.1587 22.8083L19.2729 22.7936C18.3736 23.171 17.4079 23.365 16.4326 23.364C14.8142 23.3653 13.2408 22.8307 11.9583 21.8436ZM20.641 22.0374C20.3833 20.376 19.9414 18.7892 19.4078 17.3237C20.6539 17.1436 22.0687 17.1396 23.6617 17.3989C23.2924 19.3108 22.1818 20.9604 20.641 22.0374Z" fill="#A9A9A9"/>
</svg>
