<svg width="33" height="32" viewBox="0 0 33 32" fill="none" xmlns="http://www.w3.org/2000/svg">
<path d="M16.4997 0C7.67757 0 0.5 7.17757 0.5 16C0.5 24.8227 7.67757 32 16.4997 32C25.3222 32 32.5 24.8227 32.5 16C32.4997 7.17757 25.3219 0 16.4997 0ZM16.4997 30.4219C8.5476 30.4219 2.07806 23.9524 2.07806 16C2.07806 8.04787 8.5476 1.57806 16.4997 1.57806C24.4519 1.57806 30.9219 8.04787 30.9219 16C30.9217 23.9524 24.4519 30.4219 16.4997 30.4219Z" fill="#484E53"/>
<path d="M16.5 6C15.1868 6 13.8864 6.25866 12.6732 6.7612C11.4599 7.26375 10.3575 8.00035 9.42893 8.92893C7.55357 10.8043 6.5 13.3478 6.5 16C6.5 20.42 9.37 24.17 13.34 25.5C13.84 25.58 14 25.27 14 25V23.31C11.23 23.91 10.64 21.97 10.64 21.97C10.18 20.81 9.53 20.5 9.53 20.5C8.62 19.88 9.6 19.9 9.6 19.9C10.6 19.97 11.13 20.93 11.13 20.93C12 22.45 13.47 22 14.04 21.76C14.13 21.11 14.39 20.67 14.67 20.42C12.45 20.17 10.12 19.31 10.12 15.5C10.12 14.39 10.5 13.5 11.15 12.79C11.05 12.54 10.7 11.5 11.25 10.15C11.25 10.15 12.09 9.88 14 11.17C14.79 10.95 15.65 10.84 16.5 10.84C17.35 10.84 18.21 10.95 19 11.17C20.91 9.88 21.75 10.15 21.75 10.15C22.3 11.5 21.95 12.54 21.85 12.79C22.5 13.5 22.88 14.39 22.88 15.5C22.88 19.32 20.54 20.16 18.31 20.41C18.67 20.72 19 21.33 19 22.26V25C19 25.27 19.16 25.59 19.67 25.5C23.64 24.16 26.5 20.42 26.5 16C26.5 14.6868 26.2413 13.3864 25.7388 12.1732C25.2362 10.9599 24.4997 9.85752 23.5711 8.92893C22.6425 8.00035 21.5401 7.26375 20.3268 6.7612C19.1136 6.25866 17.8132 6 16.5 6Z" fill="#A9A9A9"/>
</svg>
