<svg width="33" height="32" viewBox="0 0 33 32" fill="none" xmlns="http://www.w3.org/2000/svg">
<path d="M16.4997 0C7.67757 0 0.5 7.17757 0.5 16C0.5 24.8227 7.67757 32 16.4997 32C25.3222 32 32.5 24.8227 32.5 16C32.4997 7.17757 25.3219 0 16.4997 0ZM16.4997 30.4219C8.5476 30.4219 2.07806 23.9524 2.07806 16C2.07806 8.04787 8.5476 1.57806 16.4997 1.57806C24.4519 1.57806 30.9219 8.04787 30.9219 16C30.9217 23.9524 24.4519 30.4219 16.4997 30.4219Z" fill="#484E53"/>
<path d="M8.37305 12.6094H12.0757V22.2708H8.37305V12.6094Z" fill="#A9A9A9"/>
<path d="M10.1884 11.0681C11.2234 11.0681 12.0624 10.3027 12.0624 9.3585C12.0624 8.41433 11.2234 7.64893 10.1884 7.64893C9.15345 7.64893 8.31445 8.41433 8.31445 9.3585C8.31445 10.3027 9.15345 11.0681 10.1884 11.0681Z" fill="#A9A9A9"/>
<path d="M21.3831 12.3911C20.6248 12.3911 19.9823 12.5292 19.4541 12.8051C18.9265 13.0813 18.4052 13.5405 17.8895 14.1833V12.6094H14.4414V22.2709H18.1441V17.6311C18.1441 16.7516 18.2837 16.1424 18.5628 15.8026C18.8418 15.4631 19.2053 15.2932 19.6543 15.2932C20.0606 15.2932 20.376 15.4192 20.6006 15.6709C20.8252 15.9226 20.937 16.3515 20.937 16.9583V22.2709H24.6581V16.1303C24.6581 14.8566 24.3682 13.915 23.7888 13.3053C23.2102 12.6957 22.4077 12.3911 21.3831 12.3911Z" fill="#A9A9A9"/>
</svg>
