<svg width="15" height="15" viewBox="0 0 15 15" fill="none" xmlns="http://www.w3.org/2000/svg">
<path d="M0.841685 6.50127L4.93585 2.40002L6.13293 3.60418C5.96293 4.20627 6.23918 4.86502 6.79168 5.18377V9.10793C6.36668 9.34877 6.08335 9.80918 6.08335 10.3334C6.08335 10.7091 6.23261 11.0694 6.49828 11.3351C6.76396 11.6008 7.12429 11.75 7.50002 11.75C7.87574 11.75 8.23608 11.6008 8.50175 11.3351C8.76743 11.0694 8.91668 10.7091 8.91668 10.3334C8.91668 9.80918 8.63335 9.34877 8.20835 9.10793V5.66543L9.6746 7.14585C9.62502 7.2521 9.62502 7.37252 9.62502 7.50002C9.62502 7.87574 9.77427 8.23608 10.04 8.50175C10.3056 8.76743 10.666 8.91668 11.0417 8.91668C11.4174 8.91668 11.7777 8.76743 12.0434 8.50175C12.3091 8.23608 12.4584 7.87574 12.4584 7.50002C12.4584 7.12429 12.3091 6.76396 12.0434 6.49828C11.7777 6.23261 11.4174 6.08335 11.0417 6.08335C10.9142 6.08335 10.7938 6.08335 10.6875 6.13293L8.8671 4.31252C8.95505 3.98444 8.92095 3.6356 8.77114 3.33076C8.62133 3.02593 8.36598 2.78582 8.05252 2.65502C7.74793 2.54168 7.42918 2.51335 7.14585 2.59127L5.94168 1.39418L6.50127 0.841685C7.05377 0.282101 7.94627 0.282101 8.49877 0.841685L14.1584 6.50127C14.7179 7.05377 14.7179 7.94627 14.1584 8.49877L8.49877 14.1584C7.94627 14.7179 7.05377 14.7179 6.50127 14.1584L0.841685 8.49877C0.282101 7.94627 0.282101 7.05377 0.841685 6.50127Z" fill="white"/>
</svg>
