<svg width="31" height="31" viewBox="0 0 31 31" fill="none" xmlns="http://www.w3.org/2000/svg">
<path d="M19.375 28.4168V23.2502C19.5547 21.6321 19.0908 20.0082 18.0834 18.7293C21.9584 18.7293 25.8334 16.146 25.8334 11.6252C25.9367 10.0106 25.4846 8.42183 24.5417 7.10433C24.9034 5.61891 24.9034 4.06891 24.5417 2.5835C24.5417 2.5835 23.25 2.5835 20.6667 4.521C17.2567 3.87516 13.7434 3.87516 10.3334 4.521C7.75004 2.5835 6.45837 2.5835 6.45837 2.5835C6.07087 4.06891 6.07087 5.61891 6.45837 7.10433C5.51788 8.41651 5.0614 10.0142 5.16671 11.6252C5.16671 16.146 9.04171 18.7293 12.9167 18.7293C12.413 19.3622 12.0384 20.0856 11.8188 20.8606C11.5992 21.6356 11.5346 22.4493 11.625 23.2502M11.625 23.2502V28.4168M11.625 23.2502C5.79962 25.8335 5.16671 20.6668 2.58337 20.6668" stroke="#E4E4E7" stroke-linecap="round" stroke-linejoin="round"/>
</svg>
