<svg width="16" height="16" viewBox="0 0 16 16" fill="none" xmlns="http://www.w3.org/2000/svg">
<path d="M8.00002 15.9707C7.77202 15.9707 7.56002 15.9114 7.36202 15.8087L5.34269 14.65C5.03935 14.4887 5.19135 14.43 5.28269 14.4007C5.69202 14.2687 5.76802 14.2394 6.19335 14.004C6.23869 13.9747 6.30002 13.9894 6.34535 14.0187L7.89402 14.914C7.95402 14.9434 8.03069 14.9434 8.07602 14.914L14.134 11.5247C14.194 11.4954 14.2247 11.4367 14.2247 11.3634V4.59936C14.2247 4.52603 14.1947 4.46736 14.134 4.43803L8.07602 1.06403C8.01535 1.03469 7.93935 1.03469 7.89402 1.06403L1.83602 4.43803C1.77535 4.46736 1.74469 4.54069 1.74469 4.59936V11.3634C1.74469 11.422 1.77535 11.4954 1.83602 11.5247L3.49069 12.4494C4.38669 12.8894 4.94802 12.376 4.94802 11.8627V5.18669C4.94802 5.09869 5.02402 5.01069 5.13069 5.01069H5.90469C5.99602 5.01069 6.08669 5.08403 6.08669 5.18669V11.862C6.08669 13.0214 5.43402 13.696 4.29535 13.696C3.94602 13.696 3.67269 13.696 2.89869 13.3294L1.30469 12.4494C1.11275 12.3436 0.952461 12.1886 0.840325 12.0003C0.728189 11.812 0.668254 11.5972 0.666687 11.378V4.61403C0.666687 4.17403 0.909354 3.76336 1.30469 3.54336L7.36269 0.15336C7.55999 0.0524807 7.77842 -0.00012207 8.00002 -0.00012207C8.22162 -0.00012207 8.44005 0.0524807 8.63735 0.15336L14.696 3.54269C15.0907 3.76269 15.3334 4.17336 15.3334 4.61336V11.3774C15.3334 11.8174 15.0907 12.228 14.696 12.4487L8.63802 15.8374C8.43666 15.9247 8.21949 15.9696 8.00002 15.9694M9.86735 11.318C7.21069 11.318 6.66402 10.1447 6.66402 9.14669C6.66402 9.05869 6.74002 8.97069 6.84602 8.97069H7.63535C7.72669 8.97069 7.80202 9.02936 7.80202 9.11736C7.92402 9.89469 8.27335 10.276 9.88269 10.276C11.158 10.276 11.7047 9.99736 11.7047 9.33736C11.7047 8.95603 11.5527 8.67736 9.56402 8.48669C7.90869 8.32469 6.87669 7.97336 6.87669 6.69669C6.87669 5.50803 7.90869 4.80336 9.64002 4.80336C11.5834 4.80336 12.54 5.44936 12.6614 6.85803C12.6599 6.90569 12.6438 6.95176 12.6154 6.99003C12.5854 7.01936 12.54 7.04869 12.494 7.04869H11.7047C11.6663 7.04777 11.6293 7.03438 11.5993 7.01057C11.5692 6.98676 11.5477 6.9538 11.538 6.91669C11.3554 6.11003 10.8847 5.84536 9.64002 5.84536C8.24269 5.84536 8.07602 6.31469 8.07602 6.66736C8.07602 7.09269 8.27335 7.22469 10.156 7.45936C12.0234 7.69403 12.904 8.03136 12.904 9.29269C12.8887 10.5847 11.796 11.318 9.86735 11.318Z" fill="white"/>
</svg>
