<svg width="25" height="24" viewBox="0 0 25 24" fill="none" xmlns="http://www.w3.org/2000/svg">
<path d="M3.5 21C6.5 21 10.5 20 10.5 13V5.00003C10.5 3.75003 9.744 2.98303 8.5 3.00003H4.5C3.25 3.00003 2.5 3.75003 2.5 4.97203V11C2.5 12.25 3.25 13 4.5 13C5.5 13 5.5 13 5.5 14V15C5.5 16 4.5 17 3.5 17C2.5 17 2.5 17.008 2.5 18.031V20C2.5 21 2.5 21 3.5 21Z" stroke="#6B7280" stroke-width="2" stroke-linecap="round" stroke-linejoin="round"/>
<path d="M15.5 21C18.5 21 22.5 20 22.5 13V5.00003C22.5 3.75003 21.743 2.98303 20.5 3.00003H16.5C15.25 3.00003 14.5 3.75003 14.5 4.97203V11C14.5 12.25 15.25 13 16.5 13H17.25C17.25 15.25 17.5 17 14.5 17V20C14.5 21 14.5 21 15.5 21Z" stroke="#6B7280" stroke-width="2" stroke-linecap="round" stroke-linejoin="round"/>
</svg>
