<svg width="12" height="14" viewBox="0 0 12 14" fill="none" xmlns="http://www.w3.org/2000/svg">
<path d="M6.0855 8.34996C5.845 8.46046 5.5815 8.60446 5.054 8.89396C4.854 9.00646 4.645 9.11896 4.4505 9.22496C4.437 9.21146 4.423 9.19446 4.4095 9.18046C3.366 8.06546 1.436 7.27796 1.518 5.78046C1.5485 5.23496 1.736 3.80296 5.2245 2.06396C8.0955 0.648963 10.38 1.04096 10.7745 1.91046C11.3415 3.14996 9.55 5.45646 6.585 5.79096C6.25685 5.85749 5.91794 5.84943 5.59331 5.76739C5.26869 5.68534 4.96665 5.53141 4.7095 5.31696C4.5525 5.14646 4.529 5.13646 4.471 5.17046C4.3755 5.22046 4.437 5.37496 4.471 5.46346C4.5841 5.66824 4.73711 5.84825 4.92098 5.99288C5.10485 6.1375 5.31585 6.24379 5.5415 6.30546C6.70831 6.55766 7.92485 6.43716 9.0195 5.96096C10.8165 5.26546 12.2195 3.33196 11.8085 1.71096C11.396 0.0674627 8.668 -0.474537 6.087 0.442463C4.47064 0.98716 2.97727 1.84462 1.692 2.96596C0.270003 4.29596 0.0450032 5.45196 0.137003 5.93596C0.468003 7.65446 2.837 8.77296 3.787 9.60146C3.73767 9.62813 3.6945 9.65196 3.6575 9.67296C3.1835 9.90846 1.3765 10.853 0.926003 11.852C0.414503 12.984 1.008 13.7955 1.4 13.9045C1.99075 14.0461 2.61099 13.9997 3.17405 13.7716C3.73711 13.5436 4.21485 13.1453 4.5405 12.6325C4.81714 12.2073 4.98701 11.7216 5.03567 11.2167C5.08434 10.7118 5.01035 10.2026 4.82 9.73246C4.93226 9.64283 5.05204 9.56303 5.178 9.49396C5.42 9.35096 5.6505 9.20996 5.855 9.10096C6.55533 8.77339 7.31936 8.60453 8.0925 8.60646C9.7155 8.79746 10.036 9.80996 9.9745 10.2365C9.94564 10.3877 9.88475 10.5311 9.79593 10.6569C9.7071 10.7828 9.5924 10.8881 9.4595 10.966C9.347 11.0375 9.3095 11.0615 9.3195 11.1125C9.333 11.1875 9.3875 11.184 9.483 11.1705C9.72685 11.0934 9.94168 10.9444 10.0993 10.743C10.2569 10.5416 10.3498 10.2972 10.366 10.042C10.416 9.04196 9.4625 7.94496 7.7745 7.95496C7.26912 7.95643 6.76885 8.05611 6.3015 8.24846C6.2265 8.27946 6.15367 8.3128 6.083 8.34846L6.0855 8.34996ZM3.673 12.2695C3.134 12.856 2.384 13.0775 2.06 12.89C1.71 12.69 1.8485 11.8225 2.51 11.202C2.90146 10.8486 3.32495 10.5324 3.775 10.2575C3.8535 10.2075 3.9695 10.1415 4.109 10.0575L4.1465 10.037L4.2285 9.98696C4.34638 10.3825 4.35706 10.8023 4.25945 11.2033C4.16185 11.6044 3.95947 11.9723 3.673 12.2695Z" fill="white"/>
</svg>
