<svg width="12" height="12" viewBox="0 0 12 12" fill="none" xmlns="http://www.w3.org/2000/svg">
<mask id="mask0_3032_193" style="mask-type:luminance" maskUnits="userSpaceOnUse" x="0" y="0" width="12" height="12">
<path d="M0 0H12V12H0V0Z" fill="white"/>
</mask>
<g mask="url(#mask0_3032_193)">
<path d="M11.7145 1.75455e-06H0.285C0.247532 1.69688e-06 0.21043 0.00738998 0.17582 0.0217438C0.14121 0.0360977 0.109769 0.0571353 0.083298 0.083653C0.0568268 0.110171 0.0358443 0.141648 0.0215511 0.176283C0.00725794 0.210919 -6.52954e-05 0.248033 4.39408e-07 0.285502V11.715C-6.54271e-05 11.7525 0.00727429 11.7897 0.0215987 11.8243C0.0359231 11.859 0.0569503 11.8905 0.0834746 11.917C0.109999 11.9436 0.141498 11.9646 0.176166 11.9789C0.210835 11.9932 0.24799 12.0006 0.2855 12.0005H11.715C11.7525 12.0006 11.7897 11.9932 11.8243 11.9789C11.859 11.9646 11.8905 11.9436 11.917 11.917C11.9436 11.8905 11.9646 11.859 11.9789 11.8243C11.9932 11.7897 12.0006 11.7525 12.0005 11.715V0.285002C12.0005 0.247491 11.9931 0.210349 11.9787 0.175706C11.9643 0.141062 11.9432 0.1096 11.9167 0.0831219C11.8901 0.0566441 11.8586 0.0356721 11.8239 0.0214084C11.7892 0.00714475 11.752 -0.000129863 11.7145 1.75455e-06ZM7.143 6.413H5.7145V10.857H4.5715V6.413H3.143V5.4285H7.143V6.413ZM7.463 10.603V9.4155C7.463 9.4155 8.112 9.9045 8.8905 9.9045C9.669 9.9045 9.639 9.3955 9.639 9.3255C9.639 8.587 7.433 8.587 7.433 6.95C7.433 4.724 10.6475 5.6025 10.6475 5.6025L10.6075 6.6605C10.6075 6.6605 10.0685 6.301 9.4595 6.301C8.8505 6.301 8.631 6.591 8.631 6.9C8.631 7.6985 10.857 7.619 10.857 9.226C10.857 11.701 7.463 10.6035 7.463 10.6035" fill="white"/>
</g>
</svg>
